<svg width="1013" height="229" viewBox="0 0 1013 229" fill="none" xmlns="http://www.w3.org/2000/svg">
<path d="M307.049 56.1289H345.837L378.487 136.681L411.335 56.1289H448.274L394.548 182.57H360.776L307.049 56.1289Z" fill="white"/>
<path d="M460.947 56.1289H559.27V84.9579H497.513V104.231H547.346V133.08H497.513V153.721H559.27V181.685H460.947V56.1289Z" fill="white"/>
<path d="M701.066 181.685H659.44L633.346 147.484H613.391V181.685H577.199V56.1289H636.602C672.046 56.1289 690.131 61.601 690.131 101.515C690.131 126.26 683.069 135.977 669.252 139.739L701.154 181.685H701.066ZM636.602 120.969C648.549 120.969 653.587 117.388 653.587 101.857C653.587 85.7626 647.427 82.9259 636.404 82.9259H613.391V120.969H636.602Z" fill="white"/>
<path d="M848.275 56.1293H885.04V181.685H848.275V56.1293ZM868.429 11.0249H910.715L874.127 48.3839H848.649L868.429 11.0249Z" fill="white"/>
<path d="M903.699 178.969L909.287 151.307C924.521 153.635 939.902 155.067 955.336 155.592C972.717 155.592 975.687 153.882 975.687 145.191C975.687 136.842 973.091 136.158 951.639 132.557C911.883 126.099 903.127 120.788 903.127 91.6375C903.127 62.9695 923.082 54.4395 955.93 54.4395C971.771 54.4395 999.778 56.9944 1006.66 59.0465L1001.05 86.8494C986.07 84.5423 970.923 83.2312 955.732 82.9264C942.531 82.9264 939.869 85.4814 939.869 92.3014C939.869 100.831 942.487 101.354 961.518 104.372C1004.07 111.373 1013 115.477 1013 145.493C1013 173.819 996.038 183.375 955.006 183.375C937.789 183.374 920.61 181.886 903.699 178.929" fill="white"/>
<path d="M794.374 56.1289H834.284L782.427 108.174L838.398 181.705H795.672L758.182 132.557L751.45 139.397V181.705H714.51V56.1289H751.45V99.302L794.374 56.1289Z" fill="white"/>
<path d="M0 142.113V188.766L99.5113 137.204L57.6431 114.088L0 142.113Z" fill="white"/>
<path d="M0 142.113V188.766L99.5113 137.204L57.6431 114.088L0 142.113Z" fill="white" fill-opacity="0.2"/>
<path d="M0 39.4502V86.0634L57.6431 114.088L99.5113 137.203V90.9923L0 39.4502Z" fill="white"/>
<path d="M249.559 39.4502L150.025 90.9923L191.894 114.088L249.559 86.0634V39.4502Z" fill="white"/>
<path d="M249.559 39.4502L150.025 90.9923L191.894 114.088L249.559 86.0634V39.4502Z" fill="white" fill-opacity="0.2"/>
<path d="M150.025 137.204H150.047V137.224L249.559 188.746V142.113L191.894 114.089L150.025 90.9932V137.204Z" fill="white"/>
<path d="M124.77 175.468L155.417 228.197H206.416L150.049 137.224L150.027 137.204L124.77 175.468Z" fill="white"/>
<path d="M124.77 175.468L155.417 228.197H206.416L150.049 137.224L150.027 137.204L124.77 175.468Z" fill="white" fill-opacity="0.2"/>
<path d="M99.5115 137.204L43.1445 228.197H94.1652L124.769 175.468L150.026 137.204H99.5115Z" fill="white"/>
<path d="M150.025 137.204L150.046 137.225V137.204H150.025Z" fill="white"/>
<path d="M206.415 0H155.417L124.769 52.7089L99.5117 90.9933H150.026L206.415 0Z" fill="white"/>
<path d="M94.1652 0H43.1445L99.5115 90.9933L124.769 52.7089L94.1652 0Z" fill="white"/>
<path d="M94.1652 0H43.1445L99.5115 90.9933L124.769 52.7089L94.1652 0Z" fill="white" fill-opacity="0.2"/>
</svg>
