<svg width="717" height="132" viewBox="0 0 717 132" fill="none" xmlns="http://www.w3.org/2000/svg">
<path d="M0 131.127V0H30.7773V54.6578L103.453 0H147.68L60.7788 61.7271L158.37 131.127H109.316L30.8636 73.4518V131.127H0.0862295H0Z" fill="white"/>
<path d="M175.438 131.127V0H205.87V106.471H304.237V131.127H175.438Z" fill="white"/>
<path d="M316.305 131.127L390.533 0H420.017L495.193 131.127H460.881L445.104 102.419H361.997L346.737 131.127H316.219H316.305ZM374.928 78.7969H432.345L404.154 25.4322L374.928 78.7969Z" fill="white"/>
<path d="M685.902 131.127V0H716.335V131.127H685.902Z" fill="white"/>
<path d="M618.565 51.1199H536.578V22.9289H651.239V0.0830078H542.699C530.112 0.0830078 521.577 2.2383 517.008 6.46264C512.439 10.687 510.111 18.877 510.111 31.119V45.6024C510.111 57.8444 512.439 66.0345 517.008 70.2588C521.577 74.4831 530.112 76.6384 542.699 76.6384H624.513V106.64H510.198V131.296H618.651C631.152 131.296 639.773 129.141 644.428 124.917C649.084 120.692 651.411 112.502 651.411 100.26V82.2421C651.411 70.0002 649.084 61.8101 644.428 57.5858C639.773 53.3614 631.152 51.2062 618.565 51.2062V51.1199Z" fill="white"/>
</svg>
